<svg width="87" height="96" viewBox="0 0 87 96" fill="none" xmlns="http://www.w3.org/2000/svg">
<g clip-path="url(#clip0_95_51)">
<path d="M11.1538 8.06415L11.1542 8.0639C17.8587 4.35991 25.21 2.45328 32.9609 2.45328C40.6446 2.45328 64.3253 4.73951 74.6936 32.7903C74.7487 32.9394 74.8456 33.3178 74.8309 33.691C74.8159 34.0689 74.699 34.3034 74.4804 34.4146C74.0353 34.641 73.8216 34.6857 73.6518 34.6569C73.4826 34.6282 73.2493 34.5073 72.8418 34.1024C64.1485 16.4504 54.9832 11.2285 53.4923 10.4464C46.4299 6.74144 40.3011 5.1611 32.9609 5.1611C25.6627 5.1611 18.7274 6.92419 12.4191 10.4519C11.8013 10.7915 11.006 10.5688 10.6213 9.90572C10.2776 9.25093 10.5277 8.40917 11.1538 8.06415ZM14.351 15.9671L14.3519 15.9666C25.6759 10.0226 40.7925 9.26087 51.4278 15.9108C61.5502 22.24 67.9278 32.5402 71.0327 45.1761C71.2395 46.0178 71.1122 46.4335 70.9382 46.6813C70.7533 46.9447 70.4557 47.1191 70.0343 47.336C69.306 47.3161 68.9236 47.1094 68.6613 46.8648C68.5119 46.7254 68.3845 46.5576 68.2524 46.3576C68.1944 46.2698 68.1384 46.1804 68.0786 46.0849L68.0521 46.0426C68 45.9596 67.9451 45.8724 67.887 45.7847C65.5725 35.0563 59.5794 24.7813 50.3006 18.3753L50.2751 18.3577L50.2476 18.3434C39.6438 12.8176 26.0959 12.817 15.527 18.3812C10.4971 21.0153 6.28294 24.7778 2.9594 29.5118L2.94497 29.5323L2.93267 29.5542C2.74568 29.8871 2.38498 30.0777 1.94731 30.0777C1.68812 30.0777 1.42239 29.9995 1.17525 29.833C0.574056 29.4042 0.430797 28.5686 0.86488 27.9322C4.42791 22.8063 8.95868 18.7833 14.351 15.9671ZM50.8736 67.972L50.8641 67.9717H50.8547C46.6052 67.9717 42.882 66.8827 39.8433 64.7617L39.841 64.7601C34.5424 61.1059 31.3836 55.1769 31.3836 48.8943C31.3836 48.1241 31.9696 47.5404 32.7058 47.5404C33.4419 47.5404 34.0279 48.1241 34.0279 48.8943C34.0279 54.2916 36.7368 59.3757 41.3158 62.5069C44 64.3529 47.1276 65.2268 50.8547 65.2268H50.8645L50.8744 65.2264C59.3533 64.8922 65.2668 59.6931 66.8638 57.7757C66.8675 57.7727 66.8717 57.7694 66.8763 57.7658C66.9053 57.7432 66.9507 57.7098 67.0098 57.6723C67.1298 57.5963 67.2964 57.5099 67.4903 57.4582C67.8476 57.3629 68.3398 57.3675 68.8839 57.9211C69.1638 58.2059 69.2097 58.4556 69.1864 58.6882C69.1608 58.9446 69.0524 59.1917 68.9238 59.4849C68.9132 59.509 68.9025 59.5334 68.8917 59.5581C68.7955 59.7784 68.582 60.0919 68.232 60.4827C67.8878 60.867 67.4329 61.3025 66.8811 61.767C65.7777 62.6958 64.3068 63.7238 62.6057 64.6725C59.1935 66.5754 54.9185 68.1248 50.8736 67.972ZM66.4503 70.7494C66.4491 70.75 66.4478 70.7505 66.4466 70.7511C66.4191 70.7557 66.3971 70.7616 66.3827 70.7659C66.3395 70.7787 66.305 70.7948 66.2868 70.8037C66.2677 70.8131 66.2471 70.8237 66.2272 70.835L66.226 70.8356C66.2159 70.8413 66.1673 70.8685 66.1206 70.9111C66.1064 70.9241 66.0749 70.954 66.0439 70.9991C66.0374 71.0087 66.0247 71.0275 66.011 71.0544C65.9056 71.1375 65.7483 71.2529 65.5368 71.394C64.9813 71.7645 64.0751 72.2971 62.8079 72.8679C60.2748 74.0089 56.303 75.3013 50.8131 75.7598C40.553 76.6169 33.765 71.8033 29.8527 67.896C24.8452 62.837 22.0904 56.105 22.0904 48.8943C22.0904 43.1772 26.8822 38.4933 32.8151 38.4933C38.748 38.4933 43.5397 43.1772 43.5397 48.8943C43.5397 53.1618 47.1774 56.5875 51.62 56.5875C56.0626 56.5875 59.7003 53.1618 59.7003 48.8943C59.7003 34.6198 47.612 23.0699 32.7786 23.0699C22.2437 23.0699 12.5868 29.0324 8.23677 38.3L8.23159 38.311L8.22695 38.3223C5.52491 44.894 5.33365 51.3748 6.18106 56.738C7.02707 62.0923 8.91337 66.3641 10.4071 68.5328C10.952 69.324 11.4302 70.1498 11.9441 71.0374C12.2803 71.6181 12.6318 72.2253 13.0274 72.8665C14.0101 74.4595 15.214 76.1691 17.0006 77.9352C20.5735 81.4669 26.428 85.1773 37.3935 88.7005C38.6746 89.1532 39.0727 89.6693 39.1979 90.0497C39.3168 90.4106 39.2435 90.7791 39.1321 91.1721C38.582 91.463 37.8747 91.4453 37.0731 91.2555C36.6452 91.1542 36.2175 91.0105 35.808 90.8633C35.6994 90.8243 35.5902 90.7843 35.4822 90.7448C35.1953 90.6397 34.9162 90.5375 34.6751 90.4632C26.6074 87.979 12.9676 83.2179 5.86833 66.8136C4.15186 62.8473 2.93333 58.9057 2.63466 54.3533C2.33591 49.7996 2.95578 44.6068 4.95285 38.1409C6.60755 32.7835 10.6432 28.3294 15.7481 25.2087C20.8522 22.0884 26.9885 20.325 32.7786 20.325C49.1011 20.325 62.3447 33.132 62.3447 48.8573C62.3447 54.5744 57.5529 59.2583 51.62 59.2583C45.6871 59.2583 40.8954 54.5744 40.8954 48.8573C40.8954 44.5898 37.2577 41.1641 32.8151 41.1641C28.3725 41.1641 24.7348 44.5898 24.7348 48.8573C24.7348 55.3266 27.1902 61.3865 31.6946 65.9315L31.6945 65.9316L31.7029 65.9397C41.4141 75.2921 55.1481 75.3038 65.7817 67.5649C66.3861 67.508 66.7858 67.5359 67.0778 67.6845C67.3574 67.8267 67.638 68.1356 67.8464 68.9159C67.9893 69.4509 67.6556 69.9363 67.1165 70.3446C66.865 70.535 66.6114 70.6733 66.4503 70.7494ZM55.9852 83.062C55.9852 83.6201 55.4373 84.4159 53.752 84.4159C37.9976 84.4159 29.357 80.1578 24.3421 75.6231C21.829 73.3506 20.2073 70.9917 19.053 69.0208C18.6123 68.2683 18.2425 67.5774 17.9131 66.9621C17.8092 66.768 17.7093 66.5814 17.6125 66.4028C17.2355 65.7073 16.8881 65.0979 16.5344 64.6952C14.0844 60.2287 12.7973 54.7712 12.7973 48.8943C12.7973 38.173 21.8152 29.4092 32.9244 29.4092C44.0336 29.4092 53.0515 38.173 53.0515 48.8943C53.0515 49.6646 52.4655 50.2483 51.7293 50.2483C50.9932 50.2483 50.4072 49.6646 50.4072 48.8943C50.4072 39.6256 42.5465 32.117 32.9244 32.117C23.3024 32.117 15.4417 39.6256 15.4417 48.8943C15.4417 54.3032 16.6226 59.3203 18.8929 63.4106C21.2227 67.6697 24.6453 73.2131 29.2344 76.0707C34.1215 79.114 38.0826 80.5309 42.041 81.18C45.441 81.7376 48.8327 81.7259 52.7603 81.7124C53.3796 81.7102 54.0122 81.708 54.6603 81.708C54.6607 81.708 54.661 81.708 54.6614 81.708H54.6621H54.6626C54.6627 81.708 54.6629 81.708 54.6631 81.708L54.6666 81.7082C54.6708 81.7083 54.6768 81.7086 54.6846 81.709C54.6905 81.7094 54.6973 81.7098 54.7051 81.7103C54.7253 81.7118 54.7512 81.7142 54.7819 81.7179C54.8065 81.7209 54.8341 81.7249 54.8642 81.73C55.0017 81.7533 55.1775 81.799 55.3474 81.8854C55.5152 81.9708 55.6691 82.0914 55.7823 82.2642C55.8937 82.4343 55.9852 82.6842 55.9852 83.062Z" fill="#72550D" stroke="black"/>
</g>
<defs>
<clipPath id="clip0_95_51">
<rect width="87" height="96" fill="white"/>
</clipPath>
</defs>
</svg>
