<svg width="96" height="96" viewBox="0 0 96 96" fill="none" xmlns="http://www.w3.org/2000/svg">
<g clip-path="url(#clip0_95_48)">
<path d="M48.062 75.2412L48.722 76.4396L48.9903 75.0981L52.9884 55.1074L55.9777 42.652L57.9494 37.7229L59.3971 35.31L60.3536 34.3536L61.3536 33.3536L62.3536 32.3536L63.3185 31.3886L64.7774 30.416L66.2216 29.4532L67.6581 28.9743L69.0811 28.5H70.5H72H72.9189L74.3419 28.9743L75.8082 29.4631L76.7764 29.9472L77.7764 30.4472L78.7038 30.9109L79.6464 31.8536L80.6464 32.8536L81.6062 33.8133L84.076 37.765L84.9872 37.3876L83.4872 30.8876L83.4819 30.8644L83.4743 30.8419L82.9743 29.3419L82.9631 29.3082L82.9472 29.2764L82.4472 28.2764L81.9472 27.2764L81.9333 27.2486L81.916 27.2227L80.916 25.7227L80.8886 25.6815L80.8536 25.6464L79.8536 24.6464L79.8185 24.6114L79.7774 24.584L78.2774 23.584L78.2514 23.5667L78.2236 23.5528L77.2236 23.0528L75.2236 22.0528L75.1637 22.0228L75.0981 22.0097L72.5981 21.5097L72.5495 21.5H72.5H70H69.9645L69.9293 21.505L66.4293 22.005L66.3847 22.0114L66.3419 22.0257L63.3419 23.0257L63.3082 23.0369L63.2764 23.0528L61.2764 24.0528L61.2361 24.0729L61.2 24.1L59.2 25.6L59.1716 25.6213L59.1464 25.6464L57.1464 27.6464L57.1213 27.6716L57.1 27.7L55.6 29.7L55.5729 29.7361L55.5528 29.7764L54.0528 32.7764L54.0369 32.8082L54.0257 32.8419L53.5257 34.3419L53.5122 34.3823L53.5057 34.4245L48.2466 68.8481L35.9489 43.7798L35.9472 43.7764L33.9472 39.7764L33.9333 39.7486L33.916 39.7226L32.916 38.2226L32.9031 38.2033L32.8885 38.1852L32.0783 37.1852L32.0618 37.1649L32.0433 37.1464L31.0433 36.1464L31.028 36.1312L31.0115 36.1172L29.8217 35.1172L29.7765 35.0792L29.7236 35.0528L28.7236 34.5528L27.7236 34.0528L27.6918 34.0369L27.6581 34.0257L26.1581 33.5257L26.0811 33.5H26H24.5H22.1898H22.1086L22.0317 33.5257L20.5317 34.0257L20.5136 34.0317L20.4961 34.0391L19.3063 34.5391L19.2474 34.5638L19.1966 34.6025L17.8864 35.6025L17.8599 35.6228L17.8362 35.6464L16.8362 36.6464L16.8159 36.6668L16.798 36.6893L15.6083 38.1893L15.5954 38.2055L15.584 38.2226L14.584 39.7226L14.5468 39.7784L14.5257 39.8419L14.0257 41.3419L13.5257 42.8419L13.5124 42.8818L13.5059 42.9234L13.1957 44.9234L13.185 44.9923L13.1936 45.0616L13.5038 47.5616L14.4734 47.6609L15.6586 44.1745L16.4428 42.2387L17.0904 41.2998L17.872 40.3351L18.7962 39.4109L19.6842 38.9669L21.2622 38.5H22.6898H23.6898H25.1086L26.4681 38.9532L27.8991 39.9072L29.1129 40.8335L48.062 75.2412ZM7.5 44V22.7977L48.4986 0.569545L89 22.7959V44C89 54.9557 83.9706 66.5889 76.3494 76.1228C68.7574 85.6203 58.6448 92.9701 48.5 95.4851C38.3525 92.9697 28.1147 85.6182 20.3981 76.1197C12.6515 66.5844 7.5 54.9522 7.5 44Z" fill="#12BF19" stroke="black"/>
</g>
<defs>
<clipPath id="clip0_95_48">
<rect width="96" height="96" fill="white"/>
</clipPath>
</defs>
</svg>
